<?xml version="1.0" encoding="utf-8"?>
<!-- Generator: Adobe Illustrator 15.1.0, SVG Export Plug-In . SVG Version: 6.00 Build 0)  -->
<!DOCTYPE svg PUBLIC "-//W3C//DTD SVG 1.1//EN" "http://www.w3.org/Graphics/SVG/1.1/DTD/svg11.dtd">
<svg version="1.1" id="Layer_1" xmlns="http://www.w3.org/2000/svg" xmlns:xlink="http://www.w3.org/1999/xlink" x="0px" y="0px"
	 width="750.443px" height="193.5px" viewBox="0 0 750.443 193.5" enable-background="new 0 0 750.443 193.5" xml:space="preserve">
<filter  id="AI_GaussianBlur_4">
	<feGaussianBlur  stdDeviation="4"></feGaussianBlur>
</filter>
<g filter="url(#AI_GaussianBlur_4)">
	<line fill="none" stroke="#A0A0A0" stroke-width="5" x1="165" y1="94.703" x2="334.791" y2="36.766"/>
	<g>
		<path fill="#A0A0A0" d="M331.393,37.925l-6.475-5.403l0.18-0.235l12.628,0.624c4.165-0.471,8.331-0.94,12.496-1.41
			c-3.583,2.176-7.167,4.349-10.75,6.524l-9.614,8.211l-0.272-0.035L331.393,37.925z"/>
	</g>
</g>
<g filter="url(#AI_GaussianBlur_4)">
	<line fill="none" stroke="#A0A0A0" stroke-width="5" x1="165" y1="94.703" x2="334.938" y2="157.823"/>
	<g>
		<path fill="#A0A0A0" d="M331.572,156.573l-1.6-8.28l0.288-0.068l9.389,8.467c3.524,2.27,7.048,4.539,10.572,6.809
			c-4.152-0.579-8.302-1.163-12.454-1.742l-12.639,0.283l-0.188-0.199L331.572,156.573z"/>
	</g>
</g>
<g filter="url(#AI_GaussianBlur_4)">
	<line fill="none" stroke="#A0A0A0" stroke-width="5" x1="400.222" y1="31.5" x2="570.013" y2="89.438"/>
	<g>
		<path fill="#A0A0A0" d="M566.615,88.278l-1.821-8.234l0.286-0.076l9.612,8.213c3.584,2.174,7.167,4.349,10.751,6.522
			c-4.166-0.468-8.33-0.939-12.496-1.408l-12.627,0.622l-0.194-0.194L566.615,88.278z"/>
	</g>
</g>
<g filter="url(#AI_GaussianBlur_4)">
	<line fill="none" stroke="#A0A0A0" stroke-width="5" x1="400.222" y1="163.5" x2="570.159" y2="100.38"/>
	<g>
		<path fill="#A0A0A0" d="M566.794,101.63l-6.617-5.228l0.173-0.24l12.641,0.285c4.151-0.581,8.302-1.163,12.453-1.744
			c-3.523,2.271-7.048,4.539-10.571,6.811l-9.391,8.465l-0.272-0.027L566.794,101.63z"/>
	</g>
</g>
<g filter="url(#AI_GaussianBlur_4)">
	<line fill="none" stroke="#A0A0A0" stroke-width="5" stroke-dasharray="10,10" x1="375.222" y1="56.5" x2="375.222" y2="122.195"/>
	<g>
		<path fill="#A0A0A0" d="M375.222,118.605l7.205-4.383l0.164,0.246l-4.668,11.75c-0.9,4.094-1.801,8.188-2.701,12.281
			c-0.902-4.094-1.801-8.188-2.703-12.281l-4.666-11.75l0.121-0.246L375.222,118.605z"/>
	</g>
</g>
<g filter="url(#AI_GaussianBlur_4)">
	<path fill="#A0A0A0" d="M165,110.748c0,4.945-4.712,8.955-10.526,8.955H25.526c-5.813,0-10.526-4.01-10.526-8.955v-32.09
		c0-4.945,4.713-8.955,10.526-8.955h128.947c5.814,0,10.526,4.01,10.526,8.955V110.748z"/>
</g>
<g filter="url(#AI_GaussianBlur_4)">
	<path fill="#A0A0A0" d="M735.443,110.748c0,4.945-4.713,8.955-10.526,8.955H595.97c-5.813,0-10.526-4.01-10.526-8.955v-32.09
		c0-4.945,4.713-8.955,10.526-8.955h128.947c5.813,0,10.526,4.01,10.526,8.955V110.748z"/>
</g>
<g filter="url(#AI_GaussianBlur_4)">
	<circle fill="#A0A0A0" cx="375.222" cy="163.5" r="25"/>
</g>
<g filter="url(#AI_GaussianBlur_4)">
	<circle fill="#A0A0A0" cx="375.222" cy="31.5" r="25"/>
</g>
<g>
	<g>
		<line fill="none" stroke="#231F20" stroke-width="5" x1="159" y1="88.703" x2="328.791" y2="30.766"/>
		<g>
			<path fill="#231F20" d="M325.393,31.925l-6.475-5.403l0.18-0.235l12.628,0.623c4.165-0.47,8.331-0.94,12.496-1.41
				c-3.583,2.176-7.167,4.349-10.75,6.524l-9.614,8.211l-0.272-0.035L325.393,31.925z"/>
		</g>
	</g>
</g>
<g>
	<g>
		<line fill="none" stroke="#231F20" stroke-width="5" x1="159" y1="88.703" x2="328.938" y2="151.823"/>
		<g>
			<path fill="#231F20" d="M325.572,150.573l-1.6-8.28l0.288-0.068l9.389,8.467c3.524,2.27,7.048,4.539,10.572,6.809
				c-4.152-0.579-8.302-1.163-12.454-1.742l-12.639,0.283l-0.188-0.199L325.572,150.573z"/>
		</g>
	</g>
</g>
<g>
	<g>
		<line fill="none" stroke="#231F20" stroke-width="5" x1="394.222" y1="25.5" x2="564.013" y2="83.438"/>
		<g>
			<path fill="#231F20" d="M560.615,82.278l-1.821-8.234l0.286-0.076l9.612,8.213c3.584,2.174,7.167,4.349,10.751,6.522
				c-4.166-0.468-8.33-0.939-12.496-1.408l-12.627,0.622l-0.194-0.194L560.615,82.278z"/>
		</g>
	</g>
</g>
<g>
	<g>
		<line fill="none" stroke="#231F20" stroke-width="5" x1="394.222" y1="157.5" x2="564.159" y2="94.38"/>
		<g>
			<path fill="#231F20" d="M560.794,95.63l-6.617-5.228l0.173-0.24l12.641,0.285c4.151-0.581,8.302-1.163,12.453-1.744
				c-3.523,2.271-7.048,4.539-10.571,6.811l-9.391,8.465l-0.272-0.027L560.794,95.63z"/>
		</g>
	</g>
</g>
<g>
	<g>
		
			<line fill="none" stroke="#231F20" stroke-width="5" stroke-dasharray="10,10" x1="369.222" y1="50.5" x2="369.222" y2="116.195"/>
		<g>
			<path fill="#231F20" d="M369.222,112.605l7.205-4.383l0.164,0.246l-4.668,11.75c-0.9,4.094-1.801,8.188-2.701,12.281
				c-0.902-4.094-1.801-8.188-2.703-12.281l-4.666-11.75l0.121-0.246L369.222,112.605z"/>
		</g>
	</g>
</g>
<path fill="#6FBE44" stroke="#231F20" d="M159,104.748c0,4.945-4.712,8.955-10.526,8.955H19.526c-5.813,0-10.526-4.01-10.526-8.955
	v-32.09c0-4.945,4.713-8.955,10.526-8.955h128.947c5.814,0,10.526,4.01,10.526,8.955V104.748z"/>
<text transform="matrix(1 0 0 1 43.8545 97.7969)" font-family="'DejaVuSans'" font-size="26">START</text>
<path fill="#71C8F1" stroke="#231F20" d="M729.443,104.748c0,4.945-4.713,8.955-10.526,8.955H589.97
	c-5.813,0-10.526-4.01-10.526-8.955v-32.09c0-4.945,4.713-8.955,10.526-8.955h128.947c5.813,0,10.526,4.01,10.526,8.955V104.748z"/>
<text transform="matrix(1 0 0 1 626.4941 97.7969)" font-family="'DejaVuSans'" font-size="26">END</text>
<circle fill="#FFCD33" stroke="#231F20" cx="369.222" cy="157.5" r="25"/>
<text transform="matrix(1 0 0 1 360.3032 165.5)" font-family="'DejaVuSans'" font-size="26">B</text>
<circle fill="#FFCD33" stroke="#231F20" cx="369.222" cy="25.5" r="25"/>
<text transform="matrix(1 0 0 1 360.3286 33.5)" font-family="'DejaVuSans'" font-size="26">A</text>
<text transform="matrix(1 0 0 1 193.1426 39)" font-family="'DejaVuSans'" font-size="20">t=T/100</text>
<text transform="matrix(1 0 0 1 208.9824 156.5)" font-family="'DejaVuSans'" font-size="20">t=45</text>
<text transform="matrix(1 0 0 1 482.4824 39)" font-family="'DejaVuSans'" font-size="20">t=45</text>
<text transform="matrix(1 0 0 1 466.6426 156.5)" font-family="'DejaVuSans'" font-size="20">t=T/100</text>
</svg>
