<svg width="756" height="340" xmlns="http://www.w3.org/2000/svg" xmlns:xlink="http://www.w3.org/1999/xlink" overflow="hidden"><defs><clipPath id="clip0"><rect x="0" y="0" width="756" height="340"/></clipPath></defs><g clip-path="url(#clip0)"><rect x="0" y="0" width="756" height="339.758" fill="#FFFFFF"/><rect x="471" y="249.822" width="257" height="48.9652" fill="#FFF2CC"/><rect x="446" y="240.829" width="258" height="41.9702" fill="#FFF2CC"/><rect x="239" y="220.843" width="489" height="13.9901" fill="#FFF2CC"/><rect x="378" y="234.833" width="350" height="10.9921" fill="#FFF2CC"/><rect x="392" y="245.825" width="336" height="8.9937" fill="#FFF2CC"/><rect x="544" y="273.805" width="184" height="32.9765" fill="#FFF2CC"/><rect x="698" y="290.793" width="30" height="29.9787" fill="#FFF2CC"/><rect x="592" y="276.803" width="117" height="32.9766" fill="#FFF2CC"/><rect x="630" y="279.801" width="93" height="32.9766" fill="#FFF2CC"/><rect x="668" y="283.798" width="60" height="32.9765" fill="#FFF2CC"/><path d="M408.871 222.422 469.426 252.514 451.82 287.893 391.265 257.801Z" fill="#FFF2CC" fill-rule="evenodd"/><path d="M438.452 235.001 493.209 262.212 474.424 299.959 419.667 272.748Z" fill="#FFF2CC" fill-rule="evenodd"/><path d="M477.98 256.896 538.516 265.566 532.531 307.296 471.995 298.627Z" fill="#FFF2CC" fill-rule="evenodd"/><path d="M496.247 259.492 557.038 266.148 552.443 308.054 491.652 301.398Z" fill="#FFF2CC" fill-rule="evenodd"/><path d="M354.767 226.986 384.428 237.791 380.063 249.756 350.402 238.951Z" fill="#FFF2CC" fill-rule="evenodd"/><path d="M372.386 239.177 416.193 255.135 413.18 263.395 369.373 247.437Z" fill="#FFF2CC" fill-rule="evenodd"/><path d="M334.624 222.422 364.751 231.854 360.941 244.007 330.814 234.575Z" fill="#FFF2CC" fill-rule="evenodd"/><rect x="167" y="220.843" width="83" height="4.9964" fill="#FFF2CC"/><path d="M200.545 221.001 232.041 227.755 230.269 236.006 198.773 229.252Z" fill="#FFF2CC" fill-rule="evenodd"/><path d="M223.702 224.6 251.416 232.742 249.382 239.653 221.669 231.512Z" fill="#FFF2CC" fill-rule="evenodd"/><path d="M228.235 222.222 255.948 230.364 253.915 237.275 226.202 229.133Z" fill="#FFF2CC" fill-rule="evenodd"/><path d="M249.458 230.518 278.276 232.5 277.781 239.687 248.963 237.705Z" fill="#FFF2CC" fill-rule="evenodd"/><path d="M275.423 230.509 336.344 227.298 336.868 237.226 275.947 240.437Z" fill="#FFF2CC" fill-rule="evenodd"/><rect x="653" y="281.8" width="60" height="32.9766" fill="#FFF2CC"/><text font-family="Roboto Medium,Roboto Medium_MSFontService,sans-serif" font-weight="500" font-size="192" transform="matrix(1 0 0 0.99929 23.8707 179)">paminco</text><path d="M107.5 208.851 718.428 208.851 718.428 211.85 107.5 211.85ZM716.926 205.853 725.928 210.351 716.926 214.848Z"/><path d="M107 221.842C133.005 222.469 159.01 223.096 184.362 226.142 209.714 229.188 230.622 237.519 259.11 240.116 287.598 242.714 319.223 231.786 355.29 241.729 391.358 251.672 433.175 288.399 475.515 299.776 517.855 311.152 569.778 306.494 609.33 309.988 648.882 313.481 693.488 318.945 712.828 320.737 732.169 322.529 728.771 321.633 725.373 320.737" stroke="#2F528F" stroke-width="4.00088" stroke-miterlimit="8" fill="none" fill-rule="evenodd"/></g></svg>