<?xml version="1.0" encoding="UTF-8"?>
<svg xmlns="http://www.w3.org/2000/svg" xmlns:xlink="http://www.w3.org/1999/xlink" width="px" height="340px" viewBox="0 0 351 340" version="1.1">
<g id="surface1">
<path style=" stroke:none;fill-rule:nonzero;fill:rgb(0%,0%,0%);fill-opacity:1;" d="M 6.269531 105.789062 L 18.609375 106.703125 C 31.410156 92.214844 36.4375 49.355469 111.859375 57.742188 C 109.117188 241.378906 28.664062 260.75 33.695312 298.421875 C 35.523438 319.777344 52.433594 332.894531 70.71875 333.65625 C 128.46875 331.671875 125.878906 253.734375 143.855469 57.285156 L 218.363281 57.285156 C 214.402344 126.53125 203.585938 195.773438 202.367188 263.648438 C 203.28125 308.792969 230.707031 332.894531 266.816406 333.199219 C 326.242188 335.179688 344.984375 265.78125 344.984375 236.195312 L 332.183594 236.195312 C 330.964844 260.597656 319.234375 278.136719 294.246094 279.203125 C 226.136719 280.121094 263.617188 159.324219 264.074219 58.199219 L 344.984375 58.65625 L 344.527344 6.953125 C 8.242188 5.324219 50.925781 -1.277344 6.269531 105.789062 Z M 6.269531 105.789062 "/>
</g>
</svg>
