<svg xmlns="http://www.w3.org/2000/svg" xmlns:xlink="http://www.w3.org/1999/xlink" version="1.1" viewBox="0.77 -0.26 340 340.52">
<g id="surface1">
<path style=" stroke:none;fill-rule:evenodd;fill:rgb(0%,0%,0%);fill-opacity:1;" d="M 177.066406 0 C 197.625 0.769531 217.414062 5.398438 235.660156 12.847656 L 239.257812 22.101562 L 231.550781 38.804688 L 234.890625 48.3125 C 244.914062 53.710938 254.421875 60.136719 262.644531 67.847656 L 272.667969 67.847656 L 285.773438 54.738281 L 295.539062 54.738281 C 309.160156 69.386719 319.953125 86.605469 327.921875 105.367188 L 323.808594 114.359375 L 306.589844 120.785156 L 302.222656 129.78125 C 305.5625 140.316406 307.617188 151.625 308.132812 163.191406 L 315.328125 170.128906 L 333.832031 170.128906 L 340.769531 177.066406 C 340 197.625 335.375 217.414062 327.921875 235.660156 L 318.667969 239.003906 L 301.964844 231.292969 L 292.457031 234.632812 C 287.058594 244.65625 280.636719 254.164062 272.925781 262.386719 L 273.183594 272.410156 L 286.289062 285.519531 L 286.289062 295.285156 C 271.640625 308.902344 254.421875 319.699219 235.660156 327.40625 L 226.667969 323.296875 L 220.242188 306.078125 L 211.246094 301.707031 C 200.453125 305.050781 189.402344 307.105469 177.839844 307.617188 L 170.898438 314.816406 L 170.898438 333.316406 L 163.960938 340.257812 C 143.402344 339.484375 123.613281 334.859375 105.367188 327.152344 L 102.027344 317.898438 L 109.734375 301.195312 L 106.394531 291.6875 C 96.371094 286.289062 86.863281 279.863281 78.640625 272.152344 L 68.617188 272.410156 L 55.511719 285.519531 L 45.746094 285.519531 C 32.125 270.871094 21.332031 253.652344 13.621094 234.890625 L 17.734375 225.894531 L 34.949219 219.472656 L 39.320312 210.476562 C 35.980469 199.941406 33.921875 188.632812 33.410156 177.066406 L 26.214844 170.128906 L 7.710938 170.128906 L 0.769531 163.191406 C 1.542969 142.628906 6.167969 122.84375 13.621094 104.59375 L 22.871094 101.253906 L 39.578125 108.964844 L 49.085938 105.625 C 54.480469 95.601562 60.90625 86.09375 68.617188 77.867188 L 68.617188 67.847656 L 55.511719 54.738281 L 55.511719 44.972656 C 70.160156 31.351562 87.378906 20.558594 106.136719 12.59375 L 115.132812 16.703125 L 121.558594 33.921875 L 130.550781 38.292969 C 141.34375 34.949219 152.394531 32.894531 163.960938 32.382812 L 170.898438 25.183594 L 170.898438 6.683594 L 177.839844 -0.257812 Z M 170.128906 72.730469 C 223.839844 72.730469 267.527344 116.417969 267.527344 170.128906 C 267.527344 223.839844 223.839844 267.527344 170.128906 267.527344 C 116.417969 267.527344 72.730469 223.839844 72.730469 170.128906 C 72.730469 116.417969 116.417969 72.730469 170.128906 72.730469 Z M 170.128906 72.730469 "/>
</g>
</svg>