<svg xmlns="http://www.w3.org/2000/svg" xmlns:xlink="http://www.w3.org/1999/xlink" version="1.1" viewBox="0 32.05 339.95 275.89">
<g id="surface1">
<path style=" stroke:none;fill-rule:nonzero;fill:rgb(0%,0%,0%);fill-opacity:1;" d="M 205.425781 183.007812 L 186.636719 180.757812 C 184.707031 173.585938 181.890625 166.820312 178.269531 160.535156 L 189.929688 145.683594 C 191.726562 143.390625 191.519531 139.859375 189.457031 137.808594 L 170.085938 118.429688 C 168.035156 116.378906 164.503906 116.171875 162.222656 117.945312 L 147.351562 129.648438 C 141.089844 126.03125 134.320312 123.210938 127.160156 121.304688 L 124.921875 102.492188 C 124.582031 99.621094 121.929688 97.261719 119.03125 97.261719 L 91.625 97.261719 C 88.730469 97.261719 86.074219 99.621094 85.734375 102.492188 L 83.476562 121.292969 C 76.3125 123.199219 69.535156 126.03125 63.273438 129.648438 L 48.390625 117.96875 C 46.121094 116.179688 42.578125 116.378906 40.535156 118.429688 L 21.15625 137.832031 C 19.105469 139.882812 18.898438 143.414062 20.683594 145.695312 L 32.367188 160.546875 C 28.734375 166.820312 25.9375 173.597656 24.019531 180.769531 L 5.230469 183.019531 C 2.359375 183.359375 0 186 0 188.917969 L 0 216.316406 C 0 219.222656 2.359375 221.867188 5.230469 222.195312 L 24.03125 224.464844 C 25.949219 231.605469 28.757812 238.382812 32.375 244.65625 L 20.707031 259.507812 C 18.917969 261.8125 19.128906 265.34375 21.179688 267.394531 L 40.535156 286.773438 C 42.578125 288.835938 46.121094 289.042969 48.390625 287.265625 L 63.273438 275.554688 C 69.535156 279.171875 76.3125 282.003906 83.476562 283.910156 L 85.734375 302.710938 C 86.074219 305.582031 88.730469 307.941406 91.625 307.941406 L 119.03125 307.941406 C 121.929688 307.941406 124.582031 305.582031 124.921875 302.710938 L 127.183594 283.898438 C 134.34375 281.992188 141.121094 279.160156 147.394531 275.542969 L 162.269531 287.210938 C 164.550781 288.988281 168.082031 288.800781 170.121094 286.761719 L 189.5 267.351562 C 191.550781 265.289062 191.769531 261.757812 189.972656 259.484375 L 178.292969 244.636719 C 181.921875 238.363281 184.71875 231.582031 186.636719 224.410156 L 205.449219 222.164062 C 208.332031 221.824219 210.679688 219.191406 210.679688 216.273438 L 210.679688 188.875 C 210.679688 185.980469 208.320312 183.359375 205.425781 183.007812 Z M 105.34375 255.230469 C 76.269531 255.230469 52.6875 231.671875 52.6875 202.574219 C 52.6875 173.488281 76.269531 149.90625 105.34375 149.90625 C 134.429688 149.90625 158 173.476562 158 202.574219 C 158.011719 231.671875 134.429688 255.230469 105.34375 255.230469 Z M 105.34375 255.230469 "/>
<path style=" stroke:none;fill-rule:nonzero;fill:rgb(0%,0%,0%);fill-opacity:1;" d="M 336.0625 96.558594 L 321.902344 94.882812 C 320.457031 89.484375 318.351562 84.363281 315.609375 79.636719 L 324.414062 68.449219 C 325.765625 66.75 325.589844 64.074219 324.054688 62.527344 L 309.464844 47.949219 C 307.929688 46.394531 305.265625 46.238281 303.542969 47.589844 L 292.34375 56.394531 C 287.628906 53.664062 282.519531 51.558594 277.15625 50.132812 L 275.445312 35.984375 C 275.203125 33.8125 273.195312 32.046875 271.035156 32.046875 L 250.394531 32.046875 C 248.210938 32.046875 246.214844 33.8125 245.960938 35.984375 L 244.273438 50.132812 C 238.878906 51.558594 233.777344 53.675781 229.050781 56.40625 L 217.851562 47.609375 C 216.140625 46.273438 213.476562 46.4375 211.941406 47.949219 L 197.34375 62.558594 C 195.785156 64.105469 195.644531 66.761719 196.992188 68.472656 L 205.796875 79.667969 C 203.058594 84.386719 200.960938 89.496094 199.503906 94.894531 L 185.355469 96.582031 C 183.183594 96.835938 181.417969 98.839844 181.417969 101.023438 L 181.417969 121.652344 C 181.417969 123.816406 183.195312 125.832031 185.355469 126.0625 L 199.492188 127.785156 C 200.949219 133.160156 203.066406 138.257812 205.789062 142.988281 L 196.980469 154.171875 C 195.644531 155.882812 195.808594 158.5625 197.34375 160.097656 L 211.90625 174.671875 C 213.453125 176.242188 216.109375 176.382812 217.820312 175.035156 L 229.015625 166.214844 C 233.734375 168.945312 238.84375 171.0625 244.230469 172.488281 L 245.929688 186.660156 C 246.171875 188.796875 248.1875 190.566406 250.359375 190.566406 L 270.992188 190.566406 C 273.164062 190.566406 275.160156 188.796875 275.410156 186.660156 L 277.101562 172.488281 C 282.496094 171.0625 287.597656 168.945312 292.3125 166.214844 L 303.511719 175.011719 C 305.230469 176.359375 307.886719 176.207031 309.433594 174.671875 L 324.019531 160.0625 C 325.566406 158.539062 325.71875 155.875 324.371094 154.164062 L 315.574219 142.964844 C 318.316406 138.257812 320.402344 133.148438 321.847656 127.761719 L 336.007812 126.074219 C 338.179688 125.800781 339.945312 123.824219 339.945312 121.632812 L 339.945312 101.011719 C 339.988281 98.808594 338.210938 96.835938 336.0625 96.558594 Z M 260.714844 150.960938 C 238.800781 150.960938 221.066406 133.214844 221.066406 111.324219 C 221.066406 89.421875 238.824219 71.683594 260.714844 71.683594 C 282.582031 71.683594 300.339844 89.421875 300.339844 111.324219 C 300.339844 133.203125 282.59375 150.960938 260.714844 150.960938 Z M 260.714844 150.960938 "/>
</g>
</svg>