<?xml version="1.0" encoding="UTF-8"?>
<svg xmlns="http://www.w3.org/2000/svg" xmlns:xlink="http://www.w3.org/1999/xlink" width="px" height="340px" viewBox="0 0 340 340" version="1.1">
<g id="surface1">
<path style=" stroke:none;fill-rule:nonzero;fill:rgb(0%,0%,0%);fill-opacity:1;" d="M 295.007812 71.796875 C 288.332031 65.113281 279.082031 61.28125 269.625 61.28125 L 85.410156 61.28125 C 80.078125 61.28125 75.734375 56.9375 75.734375 51.511719 C 75.734375 48.777344 76.804688 46.199219 78.726562 44.269531 C 80.667969 42.335938 83.246094 41.265625 85.980469 41.265625 L 261.921875 41.265625 C 264.855469 41.265625 267.234375 38.890625 267.234375 35.953125 C 267.234375 33.015625 264.855469 30.640625 261.921875 30.640625 L 85.980469 30.640625 C 80.410156 30.640625 75.167969 32.808594 71.214844 36.757812 C 67.277344 40.699219 65.109375 45.941406 65.109375 51.601562 C 65.109375 62.796875 74.214844 71.90625 85.410156 71.90625 L 95.625 71.90625 L 95.625 197.570312 C 95.625 200.773438 98.246094 202.894531 100.976562 202.894531 C 102.28125 202.894531 103.613281 202.410156 104.695312 201.328125 L 134.367188 171.652344 C 135.40625 170.613281 136.765625 170.09375 138.125 170.09375 C 139.484375 170.09375 140.84375 170.613281 141.882812 171.652344 L 171.554688 201.328125 C 172.636719 202.410156 173.96875 202.894531 175.273438 202.894531 C 178.003906 202.894531 180.625 200.773438 180.625 197.570312 L 180.625 71.90625 L 269.625 71.90625 C 276.28125 71.90625 282.796875 74.601562 287.496094 79.308594 C 292.277344 84.085938 294.90625 90.4375 294.90625 97.1875 L 294.90625 304.515625 C 294.90625 311.15625 292.316406 317.394531 287.621094 322.089844 C 282.925781 326.785156 276.6875 329.375 270.046875 329.375 L 70.8125 329.375 C 63.941406 329.375 57.484375 326.703125 52.625 321.851562 C 47.769531 316.984375 45.09375 310.523438 45.09375 303.660156 L 45.09375 43.351562 C 45.09375 25.308594 59.777344 10.625 77.820312 10.625 L 284.898438 10.625 C 287.835938 10.625 290.210938 8.25 290.210938 5.3125 C 290.210938 2.375 287.835938 0 284.898438 0 L 77.820312 0 C 53.914062 0 34.46875 19.445312 34.46875 43.351562 L 34.46875 303.660156 C 34.46875 313.359375 38.246094 322.484375 45.109375 329.359375 C 51.980469 336.222656 61.105469 340 70.8125 340 L 270.046875 340 C 279.527344 340 288.4375 336.304688 295.132812 329.601562 C 301.835938 322.90625 305.53125 313.996094 305.53125 304.515625 L 305.53125 97.1875 C 305.53125 87.597656 301.796875 78.582031 295.007812 71.796875 Z M 170 184.746094 L 149.394531 164.140625 C 146.382812 161.128906 142.382812 159.472656 138.125 159.472656 C 133.867188 159.472656 129.867188 161.128906 126.855469 164.140625 L 106.25 184.746094 L 106.25 72.269531 L 170 72.269531 Z M 170 184.746094 "/>
</g>
</svg>
